<mxfile host="app.diagrams.net" modified="2023-07-27T23:32:55.476Z" agent="Mozilla/5.0 (Macintosh; Intel Mac OS X 10_15_7) AppleWebKit/537.36 (KHTML, like Gecko) Chrome/115.0.0.0 Safari/537.36" etag="NIUmVlrgWN_PDSu6hHzs" version="21.6.5" type="device">
  <diagram name="Página-1" id="3Lz5gJvFDrXr6PqPEp0e">
    <mxGraphModel dx="1659" dy="658" grid="1" gridSize="10" guides="1" tooltips="1" connect="1" arrows="1" fold="1" page="1" pageScale="1" pageWidth="827" pageHeight="1169" math="0" shadow="0">
      <root>
        <mxCell id="0" />
        <mxCell id="1" parent="0" />
        <mxCell id="-hvYWN7xrkJDmhxof469-4" style="edgeStyle=orthogonalEdgeStyle;rounded=0;orthogonalLoop=1;jettySize=auto;html=1;exitX=0.5;exitY=0.5;exitDx=0;exitDy=0;exitPerimeter=0;entryX=0;entryY=0.5;entryDx=0;entryDy=0;" edge="1" parent="1" source="-hvYWN7xrkJDmhxof469-1" target="-hvYWN7xrkJDmhxof469-2">
          <mxGeometry relative="1" as="geometry" />
        </mxCell>
        <mxCell id="-hvYWN7xrkJDmhxof469-1" value="User&lt;br&gt;" style="shape=umlActor;verticalLabelPosition=bottom;verticalAlign=top;html=1;outlineConnect=0;" vertex="1" parent="1">
          <mxGeometry x="70" y="40" width="30" height="60" as="geometry" />
        </mxCell>
        <mxCell id="-hvYWN7xrkJDmhxof469-9" style="edgeStyle=orthogonalEdgeStyle;rounded=0;orthogonalLoop=1;jettySize=auto;html=1;exitX=1;exitY=0.5;exitDx=0;exitDy=0;entryX=0;entryY=0.5;entryDx=0;entryDy=0;" edge="1" parent="1" source="-hvYWN7xrkJDmhxof469-2" target="-hvYWN7xrkJDmhxof469-6">
          <mxGeometry relative="1" as="geometry" />
        </mxCell>
        <mxCell id="-hvYWN7xrkJDmhxof469-2" value="ENVIAR MENSAGENS" style="rounded=1;whiteSpace=wrap;html=1;" vertex="1" parent="1">
          <mxGeometry x="200" y="60" width="100" height="60" as="geometry" />
        </mxCell>
        <mxCell id="-hvYWN7xrkJDmhxof469-5" value="MENSAGEM" style="swimlane;fontStyle=0;childLayout=stackLayout;horizontal=1;startSize=30;horizontalStack=0;resizeParent=1;resizeParentMax=0;resizeLast=0;collapsible=1;marginBottom=0;whiteSpace=wrap;html=1;" vertex="1" parent="1">
          <mxGeometry x="440" y="70" width="230" height="120" as="geometry" />
        </mxCell>
        <mxCell id="-hvYWN7xrkJDmhxof469-6" value="COD ID&lt;br&gt;MENSAGEM&lt;br&gt;AUTOR&lt;br&gt;DATA CRIAÇÃO&lt;br&gt;COD MSG PAI" style="text;strokeColor=none;fillColor=none;align=left;verticalAlign=middle;spacingLeft=4;spacingRight=4;overflow=hidden;points=[[0,0.5],[1,0.5]];portConstraint=eastwest;rotatable=0;whiteSpace=wrap;html=1;" vertex="1" parent="-hvYWN7xrkJDmhxof469-5">
          <mxGeometry y="30" width="230" height="90" as="geometry" />
        </mxCell>
        <mxCell id="-hvYWN7xrkJDmhxof469-12" style="edgeStyle=orthogonalEdgeStyle;rounded=0;orthogonalLoop=1;jettySize=auto;html=1;exitX=0.5;exitY=0.5;exitDx=0;exitDy=0;exitPerimeter=0;entryX=0;entryY=0.5;entryDx=0;entryDy=0;" edge="1" parent="1" source="-hvYWN7xrkJDmhxof469-10" target="-hvYWN7xrkJDmhxof469-11">
          <mxGeometry relative="1" as="geometry" />
        </mxCell>
        <mxCell id="-hvYWN7xrkJDmhxof469-10" value="User&lt;br&gt;" style="shape=umlActor;verticalLabelPosition=bottom;verticalAlign=top;html=1;outlineConnect=0;" vertex="1" parent="1">
          <mxGeometry x="70" y="170" width="30" height="60" as="geometry" />
        </mxCell>
        <mxCell id="-hvYWN7xrkJDmhxof469-15" style="edgeStyle=orthogonalEdgeStyle;rounded=0;orthogonalLoop=1;jettySize=auto;html=1;exitX=1;exitY=0.5;exitDx=0;exitDy=0;entryX=0;entryY=0.5;entryDx=0;entryDy=0;" edge="1" parent="1" source="-hvYWN7xrkJDmhxof469-11" target="-hvYWN7xrkJDmhxof469-6">
          <mxGeometry relative="1" as="geometry" />
        </mxCell>
        <mxCell id="-hvYWN7xrkJDmhxof469-11" value="ENVIAR RESPOSTAS" style="rounded=1;whiteSpace=wrap;html=1;" vertex="1" parent="1">
          <mxGeometry x="200" y="180" width="100" height="60" as="geometry" />
        </mxCell>
        <mxCell id="-hvYWN7xrkJDmhxof469-16" value="FRONTEND" style="swimlane;whiteSpace=wrap;html=1;" vertex="1" parent="1">
          <mxGeometry x="20" y="330" width="390" height="410" as="geometry" />
        </mxCell>
        <mxCell id="-hvYWN7xrkJDmhxof469-26" style="edgeStyle=orthogonalEdgeStyle;rounded=0;orthogonalLoop=1;jettySize=auto;html=1;exitX=1;exitY=0.5;exitDx=0;exitDy=0;entryX=0;entryY=0.5;entryDx=0;entryDy=0;" edge="1" parent="-hvYWN7xrkJDmhxof469-16" source="-hvYWN7xrkJDmhxof469-19" target="-hvYWN7xrkJDmhxof469-22">
          <mxGeometry relative="1" as="geometry" />
        </mxCell>
        <mxCell id="-hvYWN7xrkJDmhxof469-19" value="ENVIAR MENSAGENS" style="rounded=1;whiteSpace=wrap;html=1;" vertex="1" parent="-hvYWN7xrkJDmhxof469-16">
          <mxGeometry x="20" y="40" width="100" height="60" as="geometry" />
        </mxCell>
        <mxCell id="-hvYWN7xrkJDmhxof469-25" style="edgeStyle=orthogonalEdgeStyle;rounded=0;orthogonalLoop=1;jettySize=auto;html=1;exitX=1;exitY=0.5;exitDx=0;exitDy=0;entryX=0;entryY=0.5;entryDx=0;entryDy=0;" edge="1" parent="-hvYWN7xrkJDmhxof469-16" source="-hvYWN7xrkJDmhxof469-20" target="-hvYWN7xrkJDmhxof469-24">
          <mxGeometry relative="1" as="geometry" />
        </mxCell>
        <mxCell id="-hvYWN7xrkJDmhxof469-20" value="ENVIAR RESPOSTAS" style="rounded=1;whiteSpace=wrap;html=1;" vertex="1" parent="-hvYWN7xrkJDmhxof469-16">
          <mxGeometry x="10" y="230" width="100" height="60" as="geometry" />
        </mxCell>
        <mxCell id="-hvYWN7xrkJDmhxof469-21" value="ENVIO MENSAGEM" style="swimlane;fontStyle=0;childLayout=stackLayout;horizontal=1;startSize=30;horizontalStack=0;resizeParent=1;resizeParentMax=0;resizeLast=0;collapsible=1;marginBottom=0;whiteSpace=wrap;html=1;" vertex="1" parent="-hvYWN7xrkJDmhxof469-16">
          <mxGeometry x="164" y="40" width="206" height="80" as="geometry" />
        </mxCell>
        <mxCell id="-hvYWN7xrkJDmhxof469-22" value="MENSAGEM&lt;br&gt;AUTOR" style="text;strokeColor=none;fillColor=none;align=left;verticalAlign=middle;spacingLeft=4;spacingRight=4;overflow=hidden;points=[[0,0.5],[1,0.5]];portConstraint=eastwest;rotatable=0;whiteSpace=wrap;html=1;" vertex="1" parent="-hvYWN7xrkJDmhxof469-21">
          <mxGeometry y="30" width="206" height="50" as="geometry" />
        </mxCell>
        <mxCell id="-hvYWN7xrkJDmhxof469-23" value="ENVIO RESPOSTA" style="swimlane;fontStyle=0;childLayout=stackLayout;horizontal=1;startSize=30;horizontalStack=0;resizeParent=1;resizeParentMax=0;resizeLast=0;collapsible=1;marginBottom=0;whiteSpace=wrap;html=1;" vertex="1" parent="-hvYWN7xrkJDmhxof469-16">
          <mxGeometry x="164" y="170" width="206" height="80" as="geometry" />
        </mxCell>
        <mxCell id="-hvYWN7xrkJDmhxof469-24" value="MENSAGEM&lt;br&gt;AUTOR&lt;br&gt;COD MSG PAI" style="text;strokeColor=none;fillColor=none;align=left;verticalAlign=middle;spacingLeft=4;spacingRight=4;overflow=hidden;points=[[0,0.5],[1,0.5]];portConstraint=eastwest;rotatable=0;whiteSpace=wrap;html=1;" vertex="1" parent="-hvYWN7xrkJDmhxof469-23">
          <mxGeometry y="30" width="206" height="50" as="geometry" />
        </mxCell>
        <mxCell id="-hvYWN7xrkJDmhxof469-33" value="LISTA DE MSGS" style="rounded=1;whiteSpace=wrap;html=1;" vertex="1" parent="-hvYWN7xrkJDmhxof469-16">
          <mxGeometry x="20" y="320" width="100" height="60" as="geometry" />
        </mxCell>
        <mxCell id="-hvYWN7xrkJDmhxof469-17" value="BACKEND" style="swimlane;whiteSpace=wrap;html=1;" vertex="1" parent="1">
          <mxGeometry x="450" y="330" width="360" height="390" as="geometry" />
        </mxCell>
        <mxCell id="-hvYWN7xrkJDmhxof469-27" value="RECEBER MENSAGEM/RESPOSTA" style="swimlane;fontStyle=0;childLayout=stackLayout;horizontal=1;startSize=30;horizontalStack=0;resizeParent=1;resizeParentMax=0;resizeLast=0;collapsible=1;marginBottom=0;whiteSpace=wrap;html=1;" vertex="1" parent="-hvYWN7xrkJDmhxof469-17">
          <mxGeometry x="120" y="40" width="206" height="80" as="geometry" />
        </mxCell>
        <mxCell id="-hvYWN7xrkJDmhxof469-28" value="MENSAGEM&lt;br&gt;AUTOR&lt;br&gt;COD MSG PAI" style="text;strokeColor=none;fillColor=none;align=left;verticalAlign=middle;spacingLeft=4;spacingRight=4;overflow=hidden;points=[[0,0.5],[1,0.5]];portConstraint=eastwest;rotatable=0;whiteSpace=wrap;html=1;" vertex="1" parent="-hvYWN7xrkJDmhxof469-27">
          <mxGeometry y="30" width="206" height="50" as="geometry" />
        </mxCell>
        <mxCell id="-hvYWN7xrkJDmhxof469-31" value="CONSULTA TODAS MSG / RESPOSTAS" style="swimlane;fontStyle=0;childLayout=stackLayout;horizontal=1;startSize=30;horizontalStack=0;resizeParent=1;resizeParentMax=0;resizeLast=0;collapsible=1;marginBottom=0;whiteSpace=wrap;html=1;" vertex="1" parent="-hvYWN7xrkJDmhxof469-17">
          <mxGeometry x="110" y="230" width="206" height="120" as="geometry" />
        </mxCell>
        <mxCell id="-hvYWN7xrkJDmhxof469-32" value="ID&lt;br&gt;MENSAGEM&lt;br&gt;AUTOR&lt;br&gt;COD MSG PAI&lt;br&gt;DATA CRIACAO" style="text;strokeColor=none;fillColor=none;align=left;verticalAlign=middle;spacingLeft=4;spacingRight=4;overflow=hidden;points=[[0,0.5],[1,0.5]];portConstraint=eastwest;rotatable=0;whiteSpace=wrap;html=1;" vertex="1" parent="-hvYWN7xrkJDmhxof469-31">
          <mxGeometry y="30" width="206" height="90" as="geometry" />
        </mxCell>
        <mxCell id="-hvYWN7xrkJDmhxof469-18" value="DATABASE" style="swimlane;whiteSpace=wrap;html=1;" vertex="1" parent="1">
          <mxGeometry x="840" y="800" width="200" height="200" as="geometry" />
        </mxCell>
        <mxCell id="-hvYWN7xrkJDmhxof469-35" value="TB_MSGS" style="shape=cylinder3;whiteSpace=wrap;html=1;boundedLbl=1;backgroundOutline=1;size=15;" vertex="1" parent="-hvYWN7xrkJDmhxof469-18">
          <mxGeometry x="70" y="60" width="60" height="80" as="geometry" />
        </mxCell>
        <mxCell id="-hvYWN7xrkJDmhxof469-29" style="edgeStyle=orthogonalEdgeStyle;rounded=0;orthogonalLoop=1;jettySize=auto;html=1;exitX=1;exitY=0.5;exitDx=0;exitDy=0;entryX=0;entryY=0.5;entryDx=0;entryDy=0;" edge="1" parent="1" source="-hvYWN7xrkJDmhxof469-22" target="-hvYWN7xrkJDmhxof469-28">
          <mxGeometry relative="1" as="geometry" />
        </mxCell>
        <mxCell id="-hvYWN7xrkJDmhxof469-30" style="edgeStyle=orthogonalEdgeStyle;rounded=0;orthogonalLoop=1;jettySize=auto;html=1;exitX=1;exitY=0.5;exitDx=0;exitDy=0;entryX=0;entryY=0.5;entryDx=0;entryDy=0;" edge="1" parent="1" source="-hvYWN7xrkJDmhxof469-24" target="-hvYWN7xrkJDmhxof469-28">
          <mxGeometry relative="1" as="geometry">
            <mxPoint x="570" y="430" as="targetPoint" />
          </mxGeometry>
        </mxCell>
        <mxCell id="-hvYWN7xrkJDmhxof469-34" style="edgeStyle=orthogonalEdgeStyle;rounded=0;orthogonalLoop=1;jettySize=auto;html=1;exitX=0;exitY=0.5;exitDx=0;exitDy=0;entryX=1;entryY=0.5;entryDx=0;entryDy=0;" edge="1" parent="1" source="-hvYWN7xrkJDmhxof469-32" target="-hvYWN7xrkJDmhxof469-33">
          <mxGeometry relative="1" as="geometry" />
        </mxCell>
        <mxCell id="-hvYWN7xrkJDmhxof469-36" style="edgeStyle=orthogonalEdgeStyle;rounded=0;orthogonalLoop=1;jettySize=auto;html=1;exitX=1;exitY=0.5;exitDx=0;exitDy=0;entryX=0.5;entryY=0;entryDx=0;entryDy=0;" edge="1" parent="1" source="-hvYWN7xrkJDmhxof469-28" target="-hvYWN7xrkJDmhxof469-18">
          <mxGeometry relative="1" as="geometry" />
        </mxCell>
        <mxCell id="-hvYWN7xrkJDmhxof469-37" style="edgeStyle=orthogonalEdgeStyle;rounded=0;orthogonalLoop=1;jettySize=auto;html=1;exitX=1;exitY=0.5;exitDx=0;exitDy=0;" edge="1" parent="1" source="-hvYWN7xrkJDmhxof469-32" target="-hvYWN7xrkJDmhxof469-18">
          <mxGeometry relative="1" as="geometry" />
        </mxCell>
      </root>
    </mxGraphModel>
  </diagram>
</mxfile>
